<svg xmlns="http://www.w3.org/2000/svg" xmlns:xlink="http://www.w3.org/1999/xlink" viewBox="0 0 361 131.73"><defs><style>.cls-1{fill:none;}.cls-2{clip-path:url(#clip-path);}.cls-3{fill:#231f20;}.cls-4{fill:#fff;}.cls-5{fill:#ee3524;}.cls-6{fill:#fd0;}</style><clipPath id="clip-path" transform="translate(0 0)"><rect class="cls-1" width="361" height="117.66"/></clipPath></defs><g id="Layer_2" data-name="Layer 2"><g id="Layer_1-2" data-name="Layer 1"><g class="cls-2"><path class="cls-3" d="M23.66,90.85a21.78,21.78,0,0,1-11.75-2.93,12.44,12.44,0,0,1-6.21-9.5c-.27-2.84.21-6.48,1.49-11.12l2.09-7.57h5.55A13.86,13.86,0,0,1,12.29,53a23.25,23.25,0,0,1,1-9A29.71,29.71,0,0,1,18,33.47l.28-.36a20.8,20.8,0,0,1,8.38-6,28.41,28.41,0,0,1,10.8-2,23.77,23.77,0,0,1,11.17,2.37c4.67,2.46,6.2,5.85,6.65,8.26.51,2.68.09,6.19-1.34,11.38l-1.71,6.21H46a15.61,15.61,0,0,1,2.62,4.15c1.45,3.56,1.29,8.25-.5,14.75a29.54,29.54,0,0,1-4.55,10.17,16.87,16.87,0,0,1-3,3,24,24,0,0,1-5.59,3.23,29.12,29.12,0,0,1-11.4,2.23" transform="translate(0 0)"/><path class="cls-3" d="M65.12,89.77H55.55a39.58,39.58,0,0,1-7.41-.49A10.5,10.5,0,0,1,42,85.59a9.88,9.88,0,0,1-2.21-7c.07-1.13.38-3.11,2.07-9.24l4-14.62H43.07l5-18.08h2.82L52.74,30H77.51l-1.85,6.7h3.56l-5,18.08H70.66L66,71.59h4.13Z" transform="translate(0 0)"/><path class="cls-3" d="M76.27,90.58a27.19,27.19,0,0,1-8.92-1.26A12.38,12.38,0,0,1,60.47,84a14.24,14.24,0,0,1-1.86-7.59,40.34,40.34,0,0,1,1.75-9.62l3-11A38.29,38.29,0,0,1,68,44.81,19.64,19.64,0,0,1,69.34,43a22,22,0,0,1,6.91-5.52A25.2,25.2,0,0,1,88,34.84a22.2,22.2,0,0,1,9.57,1.84,13.77,13.77,0,0,1,6.49,5.85,14.79,14.79,0,0,1,1.81,7,32,32,0,0,1-1.45,8.32l-2.9,10.5a56.48,56.48,0,0,1-3.3,9.47,22.8,22.8,0,0,1-5.13,6.72c-.16.15-.35.31-.54.46a21.94,21.94,0,0,1-7.3,4.19,28,28,0,0,1-9,1.41" transform="translate(0 0)"/><path class="cls-3" d="M111.64,89.77H86.86l15-54.12h20.82a16.19,16.19,0,0,1,4.1-.8l7.92-.51-7.41,26.82h-4.3c-.34,0-.68,0-1.11,0a5.92,5.92,0,0,0-1.89.33c-.22.11-.26.18-.27.2l-.08.13a59.46,59.46,0,0,0-2.13,6.81Z" transform="translate(0 0)"/><path class="cls-3" d="M224.65,90.58a14.16,14.16,0,0,1-7.57-1.88,10.15,10.15,0,0,1-4.58-6.13,14.42,14.42,0,0,1-.28-5.83,74.7,74.7,0,0,1,2-8l9.13-33.05h41.76L250.13,89.77H229.87a16.91,16.91,0,0,1-5.22.81" transform="translate(0 0)"/><path class="cls-3" d="M257.53,90.58a14.23,14.23,0,0,1-9.34-3.22c-5.14-4.25-3.06-11.8-2.37-14.28l1-3.52a24.49,24.49,0,0,1,2.43-6.05h-.76l2.76-10a30.85,30.85,0,0,1,4.08-9.41l.51-.67.05-.07a22.26,22.26,0,0,1,7.4-5.81,26.27,26.27,0,0,1,12.13-2.69c5.86,0,10.12,1.21,13,3.71A12.16,12.16,0,0,1,292.79,49c-.13,1.69-.62,5.1-3.39,15.11l-7.08,25.66H262.66a16.21,16.21,0,0,1-5.13.81" transform="translate(0 0)"/><path class="cls-3" d="M298.54,89.77H273.77l15-54.12h20.81a16.28,16.28,0,0,1,4.1-.8l7.92-.51-7.41,26.82h-4.3c-.33,0-.68,0-1.11,0a5.79,5.79,0,0,0-1.88.33.69.69,0,0,0-.27.19l-.09.14a62.75,62.75,0,0,0-2.12,6.81Z" transform="translate(0 0)"/><path class="cls-3" d="M313,90.58a12.43,12.43,0,0,1-8.58-3,10.56,10.56,0,0,1-3.71-7.77,31.32,31.32,0,0,1,1.46-8.49l5.55-20.08a36.58,36.58,0,0,1,3.13-8.35,10.52,10.52,0,0,1,.72-1.08l.07-.09a16.67,16.67,0,0,1,5.14-4.51,17,17,0,0,1,8.66-2.33,16.3,16.3,0,0,1,3.69.4l2.48-9h24.78L338.83,89.77H318.12a17,17,0,0,1-5.13.81" transform="translate(0 0)"/><path class="cls-3" d="M193.74,90.85a16.06,16.06,0,0,1-9-2.59,14.08,14.08,0,0,1-5-5.57l-1.55-3.16,5.49-7.07-15.48,5.43,21.14-32.48-9.23,2.48L190.6,34.53c.11-.14.24-.29.37-.43a25.34,25.34,0,0,1,6.29-5.3,25.7,25.7,0,0,1,13.62-3.65c5.2,0,9.45,1.2,12.62,3.57a13.49,13.49,0,0,1,5.77,9.89c.23,2.93-.32,6.77-1.69,11.72l0,.08h0L216.69,89.77H199.9a17.67,17.67,0,0,1-6.16,1.08" transform="translate(0 0)"/><path class="cls-3" d="M146.81,131.73l16.48-42H110.44l14.94-54.12h20.41a16.92,16.92,0,0,1,5.2-.81,12.84,12.84,0,0,1,7.89,2.47c.39-.23.77-.44,1.15-.63a16.24,16.24,0,0,1,7.48-1.84h0L181.18,5.32,198.66,0,178.82,42.91l14.74-4.6L175.78,68.6l9.07-2.7-2.2,21.8Z" transform="translate(0 0)"/><path class="cls-4" d="M23.66,88a19,19,0,0,1-10.24-2.5,9.72,9.72,0,0,1-4.91-7.38c-.24-2.5.22-5.8,1.4-10.1l1.52-5.49H21.8a35.89,35.89,0,0,1-4.55-4.31,11,11,0,0,1-2.16-5.61,20.56,20.56,0,0,1,.9-7.93c1.17-4.25,2.57-7.37,4.29-9.55a2.94,2.94,0,0,1,.2-.26,18.14,18.14,0,0,1,7.26-5.16A25.87,25.87,0,0,1,37.48,28a21.17,21.17,0,0,1,9.85,2c3,1.56,4.7,3.67,5.2,6.29.41,2.21,0,5.42-1.29,10.11L50.1,50.55H38.9c3.89,3.09,6.19,5.68,7.15,8,1.18,2.91,1,7.14-.61,12.93a26.74,26.74,0,0,1-4.07,9.19,13.74,13.74,0,0,1-2.47,2.47A21.2,21.2,0,0,1,34,86a26.35,26.35,0,0,1-10.3,2" transform="translate(0 0)"/><path class="cls-4" d="M63,86.94H55.55a38.93,38.93,0,0,1-6.85-.42,7.63,7.63,0,0,1-4.52-2.71,7.15,7.15,0,0,1-1.59-5c.07-.93.35-2.76,2-8.68l5-18.19H46.78l3.44-12.44H53l1.86-6.7H73.8L72,39.47h3.56L72.08,51.91H68.51L62.75,72.79c-.18.64-.32,1.18-.43,1.62h4.11Z" transform="translate(0 0)"/><path class="cls-4" d="M76.27,87.76a24.26,24.26,0,0,1-8-1.11,9.65,9.65,0,0,1-5.38-4.12,11.53,11.53,0,0,1-1.47-6.12,38.26,38.26,0,0,1,1.66-8.91l3-11a35.76,35.76,0,0,1,4.23-10.15c.39-.58.81-1.09,1.16-1.53a19.25,19.25,0,0,1,6-4.81A22.28,22.28,0,0,1,88,37.66a19.68,19.68,0,0,1,8.37,1.58,10.92,10.92,0,0,1,5.2,4.63A12,12,0,0,1,103,49.52a29.87,29.87,0,0,1-1.35,7.56l-2.9,10.5a54.21,54.21,0,0,1-3.11,9,20,20,0,0,1-4.51,5.88,4.49,4.49,0,0,1-.39.33l-.08.07a19.29,19.29,0,0,1-6.36,3.65,25.23,25.23,0,0,1-8.07,1.27" transform="translate(0 0)"/><path class="cls-4" d="M109.49,86.94H90.57L104,38.47h19.12v0a13.24,13.24,0,0,1,3.83-.82l4-.26-5.78,20.92h-2.15c-.4,0-.8,0-1.3.05a7.83,7.83,0,0,0-3,.63,3.29,3.29,0,0,0-1.44,1.28l-.13.22h0a52.41,52.41,0,0,0-2.37,7.41Z" transform="translate(0 0)"/><path class="cls-4" d="M156.06,115.89l14.07-35.81-1.89.56-1.75,6.3H114.15l13.38-48.47h18.73a14.08,14.08,0,0,1,4.73-.81,9.55,9.55,0,0,1,7.61,3.26,18,18,0,0,1,2.72-1.73,13.46,13.46,0,0,1,6.19-1.53,14.5,14.5,0,0,1,1.77.11L183.21,7.65l10.24-3.11-19.87,43,13.84-4.32-17.7,30.17,11.9-3.54-1.69,16.76Z" transform="translate(0 0)"/><path class="cls-4" d="M313.27,87.48a9.72,9.72,0,0,1-6.7-2.32,7.83,7.83,0,0,1-2.77-5.73,28.94,28.94,0,0,1,1.36-7.68l5.55-20.08A35.33,35.33,0,0,1,313.55,44c.19-.33.4-.6.56-.83l.07-.1a13.82,13.82,0,0,1,4.29-3.73,14.16,14.16,0,0,1,7.24-2,12.17,12.17,0,0,1,5.45,1.18l.15.08L334,28.78h18.91L337,86.67H318.05v0a14.33,14.33,0,0,1-4.79.85" transform="translate(0 0)"/><path class="cls-4" d="M224.93,87.48A11.27,11.27,0,0,1,218.85,86a7.39,7.39,0,0,1-3.34-4.44,11.56,11.56,0,0,1-.22-4.7c.22-1.39.83-3.9,1.88-7.71l8.56-31h35.91L248.26,86.67H229.68a14.11,14.11,0,0,1-4.75.81" transform="translate(0 0)"/><path class="cls-4" d="M286.84,40.41c-2.36-2-6-3-11.17-3a23.53,23.53,0,0,0-10.84,2.38,19.69,19.69,0,0,0-6.47,5l-.06.08-.4.54A28,28,0,0,0,254.22,54l-1.78,6.45h2.11v1.23c-.21.15-.4.31-.58.46a10,10,0,0,0-1.67,2,21,21,0,0,0-2.51,6l-1,3.53c-.56,2-2.28,8.26,1.46,11.35a11.47,11.47,0,0,0,7.54,2.58,13.29,13.29,0,0,0,4.64-.82h18L287,63.09c2-7.35,3.11-12.11,3.29-14.58a9.44,9.44,0,0,0-3.41-8.1" transform="translate(0 0)"/><path class="cls-4" d="M296.67,86.67H277.75L291.14,38.2h19.13v0a13.33,13.33,0,0,1,3.83-.83l4-.26-5.78,20.93h-2.15c-.4,0-.81,0-1.3,0a8,8,0,0,0-2.95.62A3.24,3.24,0,0,0,304.43,60a1.91,1.91,0,0,1-.14.21h0a55.54,55.54,0,0,0-2.37,7.42Z" transform="translate(0 0)"/><path class="cls-4" d="M194,87.76a13.32,13.32,0,0,1-7.47-2.13,11.25,11.25,0,0,1-4-4.46l-.77-1.58L192,66.35,175.35,72.2,196,40.49l-8.15,2.19L193.1,36l.26-.3A22.22,22.22,0,0,1,199,30.94a22.84,22.84,0,0,1,12.14-3.24c4.58,0,8.25,1,10.93,3a10.71,10.71,0,0,1,4.64,7.85c.21,2.6-.31,6.11-1.59,10.74l-1,3.66h0l-9.31,33.71H201.38l0-.82-.76.41a14.82,14.82,0,0,1-6.56,1.5" transform="translate(0 0)"/><path class="cls-5" d="M336.07,31.46l-.56,2-2.78,10.09a9,9,0,0,0-1.1-1.32A7.18,7.18,0,0,0,329.79,41a9.28,9.28,0,0,0-4.19-.89,11.39,11.39,0,0,0-5.82,1.57,11,11,0,0,0-3.42,3,6.93,6.93,0,0,0-.47.68,32.51,32.51,0,0,0-2.57,7l-5.54,20.08a26.67,26.67,0,0,0-1.26,6.86,5,5,0,0,0,1.83,3.7,7,7,0,0,0,4.81,1.6,11.9,11.9,0,0,0,4.6-1,20.06,20.06,0,0,0,4.75-3l-.86,3.11H334.7l14.43-52.24ZM330.5,51.64,325,71.49a17.19,17.19,0,0,1-1.66,4.5,2.16,2.16,0,0,1-1.44.88,3.58,3.58,0,0,1-.48,0c-.73,0-1.14-.27-1.25-.82a9.55,9.55,0,0,1,.57-3.44l5.79-21c.22-.76.42-1.39.62-1.91a5.3,5.3,0,0,1,.68-1.33,2.14,2.14,0,0,1,1.76-.73c.79,0,1.24.27,1.36.81a8.17,8.17,0,0,1-.47,3.16" transform="translate(0 0)"/><path class="cls-5" d="M244.77,40.88l-.55,2-7.41,26.81a45.73,45.73,0,0,1-2,6.24,2,2,0,0,1-1.58.93c-.13,0-.26,0-.41,0-.89,0-1.36-.31-1.39-.93a32.89,32.89,0,0,1,1.34-6l8.05-29.15H227.77l-.56,2-7.42,26.89c-1,3.68-1.62,6.14-1.82,7.38a8.88,8.88,0,0,0,.17,3.57,4.5,4.5,0,0,0,2.09,2.75,8.72,8.72,0,0,0,4.59,1,11.16,11.16,0,0,0,4.87-1.1,13.53,13.53,0,0,0,4.24-3.28l-1.21,3.56H246l11.83-42.82Z" transform="translate(0 0)"/><path class="cls-5" d="M265.84,59.47l-1.48.53c-4.42,1.56-7.3,2.91-8.63,4.08a6.7,6.7,0,0,0-1.18,1.4,18.26,18.26,0,0,0-2.15,5.16l-1,3.53q-1.8,6.49.53,8.42a8.66,8.66,0,0,0,5.74,1.93,10.28,10.28,0,0,0,4.83-1.16,11.49,11.49,0,0,0,1.81-1.22l.18-.14a14.81,14.81,0,0,0,2.05-2.12l-1.06,3.82h12.68l5.94-21.51q2.94-10.62,3.2-14a6.58,6.58,0,0,0-2.45-5.74c-1.8-1.56-4.91-2.35-9.32-2.35A20.59,20.59,0,0,0,266,42.13a16.67,16.67,0,0,0-5.54,4.27c-.13.17-.26.33-.38.5a25.22,25.22,0,0,0-3.26,7.67l-.8,2.88h12.21L269.49,53c.39-1.39.72-2.46,1-3.23a6.06,6.06,0,0,1,.54-1.21,2.07,2.07,0,0,1,1.88-.85,1.25,1.25,0,0,1,1.39,1,12.17,12.17,0,0,1-.71,4.37,11.13,11.13,0,0,1-1.43,3.55,4.83,4.83,0,0,1-1.4.87c-1,.48-2.5,1.09-4.49,1.83Zm2.49,12.69a15.16,15.16,0,0,1-1.48,4,2,2,0,0,1-1.4.73c-.13,0-.26,0-.41,0-.86,0-1.35-.32-1.45-1a12.82,12.82,0,0,1,.75-4.3,18.35,18.35,0,0,1,1.73-4.47l0,0c.63-1,2.18-2.3,4.67-3.81Z" transform="translate(0 0)"/><path class="cls-5" d="M305.21,45.15c-.37.43-.73.88-1.09,1.36l.2-.55,1.82-5.08h-13l-.56,2L281.35,83.7h13.06l4.68-17a58.59,58.59,0,0,1,2.59-8,3.87,3.87,0,0,1,.21-.34,6,6,0,0,1,2.61-2.37,10.81,10.81,0,0,1,4-.91c.47,0,1-.06,1.48-.06l4.16-15q-4.86.31-9,5.09" transform="translate(0 0)"/><path class="cls-5" d="M223.81,38.63a8,8,0,0,0-3.52-5.81c-2.18-1.63-5.25-2.44-9.23-2.44a20,20,0,0,0-10.67,2.82,19.4,19.4,0,0,0-4.94,4.13,3.22,3.22,0,0,0-.24.28l7.07-1.9L182.13,66.65,200,60.37l-.65.85-.51.66L185,79.79a8.56,8.56,0,0,0,3,3.34,10.48,10.48,0,0,0,5.92,1.66,11.8,11.8,0,0,0,5.29-1.2A14.27,14.27,0,0,0,203.69,80l.24,3.74h8.63l7.76-28.06H205l-.56,2-1.64,5.94h2.12l-1.7,6.18a18.33,18.33,0,0,1-1.87,4.88,2.72,2.72,0,0,1-1.54,1.14,2.77,2.77,0,0,1-.78.12c-.88,0-1.37-.37-1.46-1.11a15.49,15.49,0,0,1,.84-4.62l6.91-25a32.82,32.82,0,0,1,1.24-3.85,4.72,4.72,0,0,1,.57-1.1,2.27,2.27,0,0,1,1.95-1c.95,0,1.45.37,1.5,1.12A25.19,25.19,0,0,1,209.37,46l-1.3,4.71h13.62l.62-2.26c1.18-4.27,1.68-7.52,1.5-9.77" transform="translate(0 0)"/><path class="cls-3" d="M313.16,85A7.42,7.42,0,0,1,308,83.27a5.44,5.44,0,0,1-2-4,27.16,27.16,0,0,1,1.27-7l5.55-20.08A33.06,33.06,0,0,1,315.48,45a6.42,6.42,0,0,1,.42-.6l.08-.11a11.46,11.46,0,0,1,3.56-3.09,11.83,11.83,0,0,1,6.06-1.64,9.91,9.91,0,0,1,4.4.93,7.55,7.55,0,0,1,2,1.41c.2.2.39.4.57.61L335.71,31h14L335.06,84.17H321l.65-2.35A18.73,18.73,0,0,1,317.94,84a12.31,12.31,0,0,1-4.78,1M325.6,40.53A10.92,10.92,0,0,0,320,42a10.74,10.74,0,0,0-3.28,2.83l-.09.11c-.12.17-.25.35-.35.52a31.69,31.69,0,0,0-2.52,6.91l-5.55,20.08A26.46,26.46,0,0,0,307,79.2a4.5,4.5,0,0,0,1.67,3.37,6.56,6.56,0,0,0,4.5,1.48,11.43,11.43,0,0,0,4.42-1,19.54,19.54,0,0,0,4.63-2.87l1.15-.93-1.09,3.93h12.07l14.17-51.3H336.43L332.9,44.71l-.57-.87a7.12,7.12,0,0,0-1-1.24,6.85,6.85,0,0,0-1.71-1.23,9,9,0,0,0-4-.84m-4.16,36.85c-1.29,0-1.63-.75-1.71-1.2s-.1-1.21.57-3.66l5.8-21c.21-.76.42-1.41.63-2a5.32,5.32,0,0,1,.76-1.46,2.58,2.58,0,0,1,2.12-.9c1.29,0,1.7.64,1.82,1.17a8.19,8.19,0,0,1-.48,3.4l-5.48,19.84a17,17,0,0,1-1.73,4.66A2.62,2.62,0,0,1,322,77.33a3,3,0,0,1-.55,0m8.17-29.24a1.68,1.68,0,0,0-1.39.55,4.7,4.7,0,0,0-.61,1.21c-.2.52-.4,1.15-.6,1.87l-5.8,21a9.32,9.32,0,0,0-.56,3.23c0,.15.09.44.79.44a2.58,2.58,0,0,0,.4,0,1.65,1.65,0,0,0,1.14-.69,15.85,15.85,0,0,0,1.59-4.35l5.48-19.84a7.62,7.62,0,0,0,.47-2.94c0-.13-.1-.44-.91-.44" transform="translate(0 0)"/><path class="cls-3" d="M224.82,85A9.1,9.1,0,0,1,220,83.88a5,5,0,0,1-2.3-3,9.28,9.28,0,0,1-.17-3.76c.2-1.27.81-3.77,1.83-7.44l8.07-29.25h14l-8.21,29.75c-1.13,4.09-1.34,5.41-1.32,5.79,0,.16,0,.49.92.49l.25,0h.11a1.5,1.5,0,0,0,1.22-.69,43.1,43.1,0,0,0,2-6.13l8-29.18h14L246.36,84.17H232.07l.78-2.29a13.38,13.38,0,0,1-3,2A11.75,11.75,0,0,1,224.82,85m3.31-43.64L227.66,43l-7.42,26.88c-1,3.64-1.61,6.1-1.8,7.33a8.31,8.31,0,0,0,.15,3.38,4.1,4.1,0,0,0,1.89,2.47,8.36,8.36,0,0,0,4.34,1,10.77,10.77,0,0,0,4.66-1,13.35,13.35,0,0,0,4.1-3.17l.8.46-1,2.94h12.26l11.57-41.88H245.13l-7.87,28.49a42.28,42.28,0,0,1-2,6.33,2.36,2.36,0,0,1-1.93,1.17h-.1a2.13,2.13,0,0,1-.37,0c-1.56,0-1.83-.86-1.86-1.38s.1-1.53,1.36-6.09l7.88-28.56Z" transform="translate(0 0)"/><path class="cls-3" d="M257.7,85a9.19,9.19,0,0,1-6-2c-1.73-1.43-1.95-4.34-.69-8.92l1-3.52a18.48,18.48,0,0,1,2.21-5.3,7.17,7.17,0,0,1,1.26-1.5c1.39-1.21,4.26-2.57,8.79-4.16l1.2-.44.7-.25c.94-.35,1.76-.66,2.48-.95H255.43l.95-3.47a25.72,25.72,0,0,1,3.34-7.82c.1-.15.21-.29.32-.44l.07-.08a17.33,17.33,0,0,1,5.69-4.4,21.28,21.28,0,0,1,9.76-2.12c4.5,0,7.74.83,9.63,2.46a7.06,7.06,0,0,1,2.61,6.14c-.18,2.31-1.23,6.93-3.21,14.13l-6,21.85H264.9l.69-2.5c-.25.24-.51.48-.77.7l-.19.14a11.43,11.43,0,0,1-1.88,1.26A10.7,10.7,0,0,1,257.7,85M272.92,47.2a1.71,1.71,0,0,1,1.85,1.39c.1.48.14,1.49-.72,4.6a11.42,11.42,0,0,1-1.51,3.71,4.51,4.51,0,0,1-1.57,1c-1,.48-2.48,1.08-4.53,1.84l-.7.26-1.22.44c-4.35,1.52-7.2,2.86-8.48,4a6.54,6.54,0,0,0-1.1,1.31,17.58,17.58,0,0,0-2.08,5l-1,3.52c-1.14,4.12-1,6.79.38,7.94a8.27,8.27,0,0,0,5.44,1.82,9.75,9.75,0,0,0,4.61-1.11,11.29,11.29,0,0,0,1.74-1.17l.18-.14a14.17,14.17,0,0,0,2-2L267,80l-.89,3.22h11.7l5.85-21.16c1.94-7,3-11.73,3.18-14a6.09,6.09,0,0,0-2.28-5.36c-1.71-1.48-4.75-2.23-9-2.23a20.25,20.25,0,0,0-9.33,2,16.38,16.38,0,0,0-5.38,4.14l-.07.08c-.1.13-.2.26-.29.4a25,25,0,0,0-3.2,7.53L256.66,57H267.9L269,52.84c.39-1.42.72-2.49,1-3.28a6.24,6.24,0,0,1,.59-1.29,2.51,2.51,0,0,1,2.27-1.07m0,.94a1.61,1.61,0,0,0-1.48.64,5.59,5.59,0,0,0-.5,1.11c-.29.76-.61,1.81-1,3.2l-1.34,4.82c.8-.32,1.45-.61,2-.85a4,4,0,0,0,1.23-.75,10,10,0,0,0,1.34-3.37c.75-2.69.8-3.74.71-4.15s-.24-.65-.93-.65M265,77.38c-1.47,0-1.83-.85-1.92-1.36a12.92,12.92,0,0,1,.77-4.51,19,19,0,0,1,1.78-4.58c.71-1.15,2.29-2.45,4.85-4l1-.62-2.76,10a14.88,14.88,0,0,1-1.55,4.16,2.47,2.47,0,0,1-1.72.91h-.06a2.63,2.63,0,0,1-.41,0m4.95-13a11.78,11.78,0,0,0-3.49,3,18,18,0,0,0-1.71,4.38c-.78,2.81-.8,3.77-.74,4.1s.1.58,1,.58l.3,0a1.61,1.61,0,0,0,1.14-.55A13.63,13.63,0,0,0,267.87,72Z" transform="translate(0 0)"/><path class="cls-3" d="M294.77,84.17h-14l12.08-43.76h14l-1.34,3.75c2.64-2.83,5.56-4.36,8.67-4.56l.66-.05-4.43,16H310c-.44,0-.9,0-1.44.06a10.29,10.29,0,0,0-3.86.87,5.57,5.57,0,0,0-2.41,2.18l-.09.13-.11.18a57.2,57.2,0,0,0-2.55,7.89ZM282,83.23h12.08l4.59-16.61a56.67,56.67,0,0,1,2.62-8.06l.16-.27.07-.1a6.61,6.61,0,0,1,2.8-2.55,11,11,0,0,1,4.21-1c.42,0,.8,0,1.15,0l3.88-14c-2.84.38-5.52,2-8,4.86-.4.47-.75.9-1.06,1.33l-.82-.44,1.8-5H293.54Z" transform="translate(0 0)"/><path class="cls-3" d="M193.91,85.26a11,11,0,0,1-6.18-1.74A8.92,8.92,0,0,1,184.54,80l-.13-.27,14.26-18.39L181,67.55l20.22-31.07-7.25,2,.88-1.12.14-.16.1-.11a20,20,0,0,1,5.06-4.24,20.55,20.55,0,0,1,10.92-2.9c4.05,0,7.25.86,9.51,2.55a8.42,8.42,0,0,1,3.71,6.15c.18,2.29-.33,5.63-1.52,9.93l-.71,2.6h-14.6l1.47-5.31c1-3.6,1.17-4.94,1.14-5.42,0-.24-.05-.68-1-.68a1.84,1.84,0,0,0-1.58.78,5.43,5.43,0,0,0-.51,1,33.38,33.38,0,0,0-1.22,3.8l-6.91,25c-.78,2.83-.88,4-.82,4.44s.19.7,1,.7a2.19,2.19,0,0,0,.65-.1,2.3,2.3,0,0,0,1.28-.95,18.27,18.27,0,0,0,1.8-4.75l1.54-5.58h-2.12l2.46-8.9h16.34l-8,29h-9.44l-.19-3.07A14.19,14.19,0,0,1,199.41,84a12.36,12.36,0,0,1-5.5,1.25m-8.39-5.42a8.18,8.18,0,0,0,2.73,2.9,10.07,10.07,0,0,0,5.66,1.58A11.42,11.42,0,0,0,199,83.16a13.87,13.87,0,0,0,4.33-3.5l.76-.89.28,4.46h7.83l7.5-27.12H205.31l-1.94,7h2.12l-1.87,6.77a18.24,18.24,0,0,1-1.94,5,3.22,3.22,0,0,1-2.7,1.46,1.7,1.7,0,0,1-1.93-1.52,16.2,16.2,0,0,1,.85-4.81l2.66-9.61Zm17.82-44.91L183.28,65.75l17.51-6.15,4-14.55a36.38,36.38,0,0,1,1.26-3.9,6,6,0,0,1,.63-1.21A2.75,2.75,0,0,1,209,38.78c1.62,0,1.93,1,2,1.56a24.46,24.46,0,0,1-1.18,5.73l-1.13,4.12h12.64l.53-1.91c1.16-4.19,1.66-7.43,1.48-9.61A7.53,7.53,0,0,0,220,33.2c-2.09-1.56-5.1-2.35-8.95-2.35a19.61,19.61,0,0,0-10.43,2.75,20.86,20.86,0,0,0-4,3.14Z" transform="translate(0 0)"/><path class="cls-3" d="M49.75,36.82q-.48-2.59-3.74-4.31a18.3,18.3,0,0,0-8.53-1.72,23,23,0,0,0-8.68,1.57,15.2,15.2,0,0,0-6.14,4.33l-.17.22a24.67,24.67,0,0,0-3.78,8.55,17.9,17.9,0,0,0-.81,6.83,8.2,8.2,0,0,0,1.55,4.19,42,42,0,0,0,5.32,4.88,27,27,0,0,1,5,4.75q.87,1.41-.4,6a7.84,7.84,0,0,1-1.53,3.15,3.11,3.11,0,0,1-2.3,1.07q-1.35,0-1.65-.84c-.2-.56,0-1.82.51-3.77L26,66.15l.21-.77H13.58l-.56,2-.38,1.4Q11,74.68,11.33,77.88a6.91,6.91,0,0,0,3.59,5.26,16.24,16.24,0,0,0,8.74,2.07,23.52,23.52,0,0,0,9.21-1.79A18.43,18.43,0,0,0,37.15,81a12,12,0,0,0,2-2,24.24,24.24,0,0,0,3.57-8.22q2.13-7.68.72-11.12t-8.92-8.88q-2.62-1.89-3-3.2a7.86,7.86,0,0,1,.34-3.91,10.3,10.3,0,0,1,.68-1.8,5,5,0,0,1,.78-1.2,2.82,2.82,0,0,1,2.14-1c.76,0,1.23.25,1.42.74s0,1.64-.47,3.45l-1.06,3.87H48l.57-2.07c1.15-4.16,1.56-7.1,1.23-8.84" transform="translate(0 0)"/><path class="cls-3" d="M68.24,42.29l1.85-6.7H57l-.55,2-1.3,4.67H52.36l-.55,2-1.32,4.76h2.82l-6,21.77A57.83,57.83,0,0,0,45.41,79a4.24,4.24,0,0,0,1,3.07,4.87,4.87,0,0,0,2.89,1.71,35.67,35.67,0,0,0,6.28.37h5.27l1.9-6.88c-2.17,0-3.35-.16-3.56-.48s.08-1.9.87-4.72L65.8,51.11l.56-2h3.57l1.88-6.79Z" transform="translate(0 0)"/><path class="cls-3" d="M99.07,45.2a8.17,8.17,0,0,0-3.91-3.41A17,17,0,0,0,88,40.48a19.52,19.52,0,0,0-9.14,2,16.43,16.43,0,0,0-5.16,4.12,13.54,13.54,0,0,0-1,1.28,33.17,33.17,0,0,0-3.87,9.34l-3,11a36.35,36.35,0,0,0-1.56,8.2,8.82,8.82,0,0,0,1.09,4.66A6.83,6.83,0,0,0,69.2,84a21.77,21.77,0,0,0,7.07,1,22.34,22.34,0,0,0,7.16-1.12,16.3,16.3,0,0,0,5.42-3.12l.42-.34a17.23,17.23,0,0,0,3.88-5,53.35,53.35,0,0,0,2.92-8.49L99,56.32a27.56,27.56,0,0,0,1.24-6.79,9.1,9.1,0,0,0-1.14-4.33M86.81,53.1,81.35,72.87A13.72,13.72,0,0,1,80,76.49a1.93,1.93,0,0,1-1.43.81c-.11,0-.2,0-.31,0-.75,0-1.16-.31-1.25-.92a13.18,13.18,0,0,1,.71-4L83.05,53.1a28.08,28.08,0,0,1,.94-3,5.78,5.78,0,0,1,.59-1.2,2,2,0,0,1,1.76-.85c.77,0,1.19.28,1.26.85a15.32,15.32,0,0,1-.79,4.16" transform="translate(0 0)"/><path class="cls-3" d="M118.14,45.57c-.37.42-.74.87-1.09,1.35l.19-.54,1.83-5.08h-13l-.56,2L94.28,84.12h13.06l4.68-17a55.93,55.93,0,0,1,2.59-8,3.87,3.87,0,0,1,.21-.34,6.07,6.07,0,0,1,2.6-2.37,11.05,11.05,0,0,1,4-.92c.47,0,1-.05,1.48-.05l4.15-15q-4.86.32-9,5.09" transform="translate(0 0)"/><path class="cls-3" d="M168.35,52.09l3.13-6.77L188.24,9.07l-3,.92L170.86,41.07a9,9,0,0,0-3.35-.59,10.66,10.66,0,0,0-4.91,1.23,17.4,17.4,0,0,0-4.71,3.66,6.66,6.66,0,0,0-6.9-4.89,11.2,11.2,0,0,0-5.12,1.23,15.61,15.61,0,0,0-4.63,3.66l1.31-4.07H129.68l-.56,2-11.27,40.8h12.69l8.2-29.7c.57-2.07,1-3.42,1.18-4.06,0,0,.05-.08.07-.13a3.57,3.57,0,0,1,1-1.48,2.59,2.59,0,0,1,1.67-.66c.92,0,1.37.42,1.35,1.25a55.24,55.24,0,0,1-1.78,7.56l-7.52,27.22h12.68l7.71-27.93a61,61,0,0,1,1.91-6,7.77,7.77,0,0,1,.37-.79,2.34,2.34,0,0,1,2.12-1.29,1.17,1.17,0,0,1,1.34,1.31,38.42,38.42,0,0,1-1.51,6.79l-7.71,27.93h12.68l1.59-5.74,8.94-2.66-9.56,24.33,19.29-13.41-6.22-12.92L163.66,78.1l17.63-30Z" transform="translate(0 0)"/><polygon class="cls-6" points="194.92 38.05 189.27 39.57 211.94 0.92 188.75 7.98 188.24 9.07 168.35 52.09 181.29 48.05 163.66 78.1 178.39 73.71 162.81 106.04 159.6 112.68 182.93 82.6 199.2 61.63 199.39 60.95 181.96 67.07 202.1 36.12 194.92 38.05"/><path class="cls-3" d="M157.25,116.49l20.25-42-14.85,4.42,17.62-30-12.79,4L188.41,7.59,213,.12l-22.7,38.7,12.92-3.47L183.11,66.17l17-6-.46,1.64-.05.07Zm22-43.53L162,108.88,198.5,61.76,180.81,68,201,36.9l-12.76,3.43L210.92,1.72,189.09,8.37l-19.87,43,13.09-4.09L164.67,77.31Z" transform="translate(0 0)"/><polygon class="cls-3" points="348.49 86 346.64 86 347.77 80.66 345.99 80.66 346.33 79.05 351.84 79.05 351.49 80.66 349.62 80.66 348.49 86"/><polygon class="cls-3" points="352.78 86 350.93 86 352.4 79.05 355.34 79.05 355.74 83.42 355.8 83.42 357.99 79.05 361 79.05 359.53 86 357.67 86 358.99 80.66 358.92 80.66 356.03 86 354.43 86 353.78 80.66 353.73 80.66 352.78 86"/><path class="cls-3" d="M3.37,96.25h8.2a13.08,13.08,0,0,1,2.36.22,3.33,3.33,0,0,1,1.56.72,2.38,2.38,0,0,1,.71,1.46,7.17,7.17,0,0,1-.18,2.42c-.14.66-.28,1.26-.42,1.79a4.37,4.37,0,0,1-.63,1.4,3.67,3.67,0,0,1-1.11,1A6.33,6.33,0,0,1,12,106l0,.17a2.61,2.61,0,0,1,1.94.75A2.32,2.32,0,0,1,14.2,109l-.68,3.21H9.27l.47-2.23a2,2,0,0,0-.06-1.45,1.32,1.32,0,0,0-1.26-.55H5.14l-.9,4.23H0Zm5.84,8a3.38,3.38,0,0,0,1.07-.14,1.34,1.34,0,0,0,.62-.43,2.19,2.19,0,0,0,.34-.77c.07-.31.16-.69.26-1.14a4.87,4.87,0,0,0,.11-.87,1,1,0,0,0-.16-.58A.84.84,0,0,0,11,100a3.19,3.19,0,0,0-.85-.09H6.83l-.91,4.31Z" transform="translate(0 0)"/><path class="cls-3" d="M19.66,112.07a4.94,4.94,0,0,1-2.15-.86,3.12,3.12,0,0,1-1.15-1.77,6.76,6.76,0,0,1,.08-3l1-4.5a7.87,7.87,0,0,1,1.18-3,5.88,5.88,0,0,1,1.91-1.78A7.23,7.23,0,0,1,23,96.35a19.06,19.06,0,0,1,3-.23,17.21,17.21,0,0,1,2.92.23,4.81,4.81,0,0,1,2.15.85A3.22,3.22,0,0,1,32.21,99a6.76,6.76,0,0,1-.08,3l-1,4.5a7.93,7.93,0,0,1-1.17,3,5.72,5.72,0,0,1-1.9,1.77,7.46,7.46,0,0,1-2.51.86,19,19,0,0,1-3,.22,17.27,17.27,0,0,1-2.92-.22m5.11-3.54a2.52,2.52,0,0,0,1-.34,2,2,0,0,0,.68-.79,6,6,0,0,0,.46-1.41l.76-3.59a4.84,4.84,0,0,0,.14-1.4,1.16,1.16,0,0,0-.35-.77,1.54,1.54,0,0,0-.85-.34,10.47,10.47,0,0,0-1.38-.08,11.2,11.2,0,0,0-1.41.08,2.28,2.28,0,0,0-1,.34,2,2,0,0,0-.67.77,6.66,6.66,0,0,0-.47,1.4L20.92,106a5,5,0,0,0-.11,1.41,1.18,1.18,0,0,0,.33.79,1.62,1.62,0,0,0,.84.34,10.69,10.69,0,0,0,1.38.07,11.41,11.41,0,0,0,1.41-.07" transform="translate(0 0)"/><path class="cls-3" d="M35.79,112.07a5,5,0,0,1-2.16-.86,3.16,3.16,0,0,1-1.14-1.77,6.76,6.76,0,0,1,.08-3l1-4.5a7.71,7.71,0,0,1,1.18-3,5.88,5.88,0,0,1,1.91-1.78,7.23,7.23,0,0,1,2.51-.85,19,19,0,0,1,3-.23,17.21,17.21,0,0,1,2.92.23,4.77,4.77,0,0,1,2.14.85A3.18,3.18,0,0,1,48.34,99a6.64,6.64,0,0,1-.09,3l-1,4.5a8.1,8.1,0,0,1-1.17,3,5.72,5.72,0,0,1-1.9,1.77,7.46,7.46,0,0,1-2.51.86,19.1,19.1,0,0,1-3,.22,17.27,17.27,0,0,1-2.92-.22m5.11-3.54a2.52,2.52,0,0,0,1-.34,2.05,2.05,0,0,0,.68-.79A6,6,0,0,0,43,106l.77-3.59a4.84,4.84,0,0,0,.14-1.4,1.21,1.21,0,0,0-.35-.77,1.57,1.57,0,0,0-.85-.34,10.47,10.47,0,0,0-1.38-.08,11.2,11.2,0,0,0-1.41.08,2.28,2.28,0,0,0-1,.34,2,2,0,0,0-.67.77,6.6,6.6,0,0,0-.48,1.4L37.05,106a5.53,5.53,0,0,0-.12,1.41,1.23,1.23,0,0,0,.34.79,1.55,1.55,0,0,0,.84.34,10.69,10.69,0,0,0,1.38.07,11.41,11.41,0,0,0,1.41-.07" transform="translate(0 0)"/><polygon class="cls-3" points="54.17 102.85 60.67 102.85 59.92 106.33 53.43 106.33 52.2 112.16 47.96 112.16 51.33 96.25 62.62 96.25 61.9 99.73 54.85 99.73 54.17 102.85"/><polygon class="cls-3" points="65.42 112.16 61.18 112.16 64.55 96.25 68.8 96.25 65.42 112.16"/><polygon class="cls-3" points="72.27 112.16 68.03 112.16 71.4 96.25 78.58 96.25 80.55 108.47 80.72 108.47 83.05 96.25 87.3 96.25 83.92 112.16 76.69 112.16 74.78 99.94 74.61 99.94 72.27 112.16"/><path class="cls-3" d="M98.52,101.19a1.47,1.47,0,0,0-.09-.92,1.08,1.08,0,0,0-.53-.48,2.54,2.54,0,0,0-.83-.17l-.94,0a7.32,7.32,0,0,0-1.83.19,2.29,2.29,0,0,0-1.07.61,2.81,2.81,0,0,0-.61,1.08q-.21.67-.42,1.62l-.55,2.59a5.55,5.55,0,0,0-.17,1.68,1.48,1.48,0,0,0,.38.93,1.65,1.65,0,0,0,.9.42,9.44,9.44,0,0,0,1.41.09,7.49,7.49,0,0,0,1.36-.1,1.91,1.91,0,0,0,.92-.42,2.22,2.22,0,0,0,.61-.83,7.13,7.13,0,0,0,.42-1.34H94.56l.61-3h7.24l-.6,2.78a16.12,16.12,0,0,1-1,3.25,4.89,4.89,0,0,1-1.5,1.94,5.41,5.41,0,0,1-2.36.92,23,23,0,0,1-3.54.23,21.92,21.92,0,0,1-3.26-.21,4.53,4.53,0,0,1-2.17-.86,3,3,0,0,1-1-1.83,7.82,7.82,0,0,1,.19-3.1l.87-4.12A9.23,9.23,0,0,1,89.22,99a5.53,5.53,0,0,1,1.89-1.84,7,7,0,0,1,2.55-.85,24.12,24.12,0,0,1,3.21-.2q1.55,0,2.82.09a4.69,4.69,0,0,1,2.1.56,2.5,2.5,0,0,1,1.14,1.51,6.22,6.22,0,0,1-.1,2.91Z" transform="translate(0 0)"/><path class="cls-3" d="M188.81,106.14l-.09.47c-.1.43-.2.86-.31,1.27a7.28,7.28,0,0,1-.41,1.19,5,5,0,0,1-.67,1.09,4.71,4.71,0,0,1-1.05,1,5.57,5.57,0,0,1-1.27.67,6.67,6.67,0,0,1-1.31.35,8.56,8.56,0,0,1-1.33.13H181c-1.09,0-2.09,0-3-.12a4.78,4.78,0,0,1-2.22-.72,2.9,2.9,0,0,1-1.18-1.79,7.93,7.93,0,0,1,.16-3.39l.87-4.12A9.45,9.45,0,0,1,176.84,99a5.53,5.53,0,0,1,1.87-1.83,7.12,7.12,0,0,1,2.53-.84,23.85,23.85,0,0,1,3.2-.2,22.67,22.67,0,0,1,2.81.15,3.76,3.76,0,0,1,1.85.68,2.39,2.39,0,0,1,.86,1.57,8.19,8.19,0,0,1-.16,2.82l-.12.62h-4.37l.12-.62a1.58,1.58,0,0,0-.07-.84.9.9,0,0,0-.45-.45,2.16,2.16,0,0,0-.75-.19c-.3,0-.62,0-1,0a5.94,5.94,0,0,0-1.47.14,1.88,1.88,0,0,0-.9.5,2.45,2.45,0,0,0-.54.94,9.75,9.75,0,0,0-.37,1.43l-.54,2.48c-.12.6-.21,1.1-.26,1.52a2,2,0,0,0,.09,1,1.1,1.1,0,0,0,.67.57,4.56,4.56,0,0,0,1.46.18c.44,0,.82,0,1.15,0a2.41,2.41,0,0,0,.87-.25,1.46,1.46,0,0,0,.62-.59,3.77,3.77,0,0,0,.39-1.1l.09-.47Z" transform="translate(0 0)"/><path class="cls-3" d="M193.36,112.07a4.94,4.94,0,0,1-2.15-.86,3.12,3.12,0,0,1-1.15-1.77,6.76,6.76,0,0,1,.08-3l1-4.5a7.87,7.87,0,0,1,1.18-3,5.88,5.88,0,0,1,1.91-1.78,7.23,7.23,0,0,1,2.51-.85,19.06,19.06,0,0,1,3-.23,17.21,17.21,0,0,1,2.92.23,4.81,4.81,0,0,1,2.15.85A3.22,3.22,0,0,1,205.91,99a6.76,6.76,0,0,1-.08,3l-1,4.5a7.93,7.93,0,0,1-1.17,3,5.72,5.72,0,0,1-1.9,1.77,7.46,7.46,0,0,1-2.51.86,19,19,0,0,1-3,.22,17.27,17.27,0,0,1-2.92-.22m5.11-3.54a2.52,2.52,0,0,0,1-.34,2,2,0,0,0,.68-.79,6,6,0,0,0,.46-1.41l.76-3.59a4.84,4.84,0,0,0,.14-1.4,1.16,1.16,0,0,0-.35-.77,1.54,1.54,0,0,0-.85-.34,10.47,10.47,0,0,0-1.38-.08,11.2,11.2,0,0,0-1.41.08,2.28,2.28,0,0,0-1,.34,2,2,0,0,0-.67.77,6.66,6.66,0,0,0-.47,1.4l-.77,3.59a5,5,0,0,0-.11,1.41,1.18,1.18,0,0,0,.33.79,1.62,1.62,0,0,0,.84.34,10.69,10.69,0,0,0,1.38.07,11.41,11.41,0,0,0,1.41-.07" transform="translate(0 0)"/><polygon class="cls-3" points="209.9 112.16 205.66 112.16 209.03 96.25 216.2 96.25 218.18 108.47 218.35 108.47 220.68 96.25 224.92 96.25 221.55 112.16 214.31 112.16 212.4 99.94 212.23 99.94 209.9 112.16"/><path class="cls-3" d="M233.45,102.49a22.11,22.11,0,0,1,2.84.35,3.62,3.62,0,0,1,1.65.7,1.86,1.86,0,0,1,.64,1.32,7.9,7.9,0,0,1-.22,2.21c-.09.44-.19.88-.3,1.31a5.61,5.61,0,0,1-.47,1.22,4.08,4.08,0,0,1-.82,1.07,4.42,4.42,0,0,1-1.35.86,8.74,8.74,0,0,1-2.08.56,19.49,19.49,0,0,1-3,.2c-.68,0-1.32,0-1.9,0a9.53,9.53,0,0,1-1.61-.18,3.73,3.73,0,0,1-1.24-.48,2.18,2.18,0,0,1-.8-.92,3.73,3.73,0,0,1-.32-1.49,9.62,9.62,0,0,1,.24-2.2h4.08a3,3,0,0,0-.09,1,.75.75,0,0,0,.32.55,1.67,1.67,0,0,0,.78.25c.33,0,.75,0,1.28,0s.91,0,1.26,0a2.74,2.74,0,0,0,.86-.19,1.21,1.21,0,0,0,.53-.44,2.17,2.17,0,0,0,.3-.79,4.09,4.09,0,0,0,.1-.79.46.46,0,0,0-.2-.43,1.39,1.39,0,0,0-.63-.18l-1.18-.09-.91-.06c-1-.07-1.83-.15-2.58-.23a4.34,4.34,0,0,1-1.84-.58,2.16,2.16,0,0,1-.92-1.37A6.36,6.36,0,0,1,226,101a7.14,7.14,0,0,1,1-2.68,4.42,4.42,0,0,1,1.65-1.46,6.42,6.42,0,0,1,2.24-.6c.84-.08,1.79-.12,2.83-.12.87,0,1.68,0,2.45.08a4.67,4.67,0,0,1,2,.5A2.28,2.28,0,0,1,239.31,98a5,5,0,0,1,0,2.56l-.15.66h-4.07a2.81,2.81,0,0,0,.07-.95.67.67,0,0,0-.31-.49,1.59,1.59,0,0,0-.7-.18l-1.08,0a8.32,8.32,0,0,0-1.38.09,2.22,2.22,0,0,0-.79.25,1.08,1.08,0,0,0-.42.43,2.27,2.27,0,0,0-.19.59,1.83,1.83,0,0,0,0,.75.66.66,0,0,0,.25.4,1.54,1.54,0,0,0,.5.18,6.71,6.71,0,0,0,.73.07Z" transform="translate(0 0)"/><polygon class="cls-3" points="246.38 112.16 242.13 112.16 244.72 99.94 240.65 99.94 241.43 96.25 254.04 96.25 253.25 99.94 248.97 99.94 246.38 112.16"/><path class="cls-3" d="M255.25,96.25h8.19a12.9,12.9,0,0,1,2.36.22,3.33,3.33,0,0,1,1.56.72,2.38,2.38,0,0,1,.71,1.46,6.69,6.69,0,0,1-.18,2.42c-.14.66-.28,1.26-.42,1.79a4.37,4.37,0,0,1-.63,1.4,3.45,3.45,0,0,1-1.11,1,6.33,6.33,0,0,1-1.89.68l0,.17a2.61,2.61,0,0,1,1.94.75,2.26,2.26,0,0,1,.33,2.07l-.68,3.21h-4.24l.46-2.23a2,2,0,0,0-.06-1.45,1.31,1.31,0,0,0-1.25-.55H257l-.89,4.23h-4.25Zm5.83,8a3.38,3.38,0,0,0,1.07-.14,1.29,1.29,0,0,0,.62-.43,2.19,2.19,0,0,0,.34-.77c.08-.31.16-.69.26-1.14a4.87,4.87,0,0,0,.11-.87,1,1,0,0,0-.16-.58.84.84,0,0,0-.48-.29,3.19,3.19,0,0,0-.85-.09H258.7l-.91,4.31Z" transform="translate(0 0)"/><path class="cls-3" d="M284.83,96.25l-2.25,10.61a9,9,0,0,1-.95,2.64,4.8,4.8,0,0,1-1.55,1.67,6.22,6.22,0,0,1-2.25.87,16.31,16.31,0,0,1-3.06.25A17.14,17.14,0,0,1,271,112a3.48,3.48,0,0,1-1.9-1,2.43,2.43,0,0,1-.58-1.69,13.27,13.27,0,0,1,.31-2.46l2.25-10.61h4.24l-2.23,10.52a2.41,2.41,0,0,0,0,1.06,1,1,0,0,0,.44.54,2.06,2.06,0,0,0,.83.2c.34,0,.73,0,1.18,0s.84,0,1.15,0a1.94,1.94,0,0,0,.8-.26,1.51,1.51,0,0,0,.54-.6,4.51,4.51,0,0,0,.36-1.11l2.18-10.33Z" transform="translate(0 0)"/><path class="cls-3" d="M298.79,106.14l-.09.47c-.1.43-.2.86-.3,1.27a8.41,8.41,0,0,1-.42,1.19,5.37,5.37,0,0,1-.66,1.09,5,5,0,0,1-1.06,1,5.37,5.37,0,0,1-1.27.67,6.58,6.58,0,0,1-1.3.35,8.81,8.81,0,0,1-1.34.13H291c-1.09,0-2.08,0-3-.12a4.78,4.78,0,0,1-2.22-.72,2.9,2.9,0,0,1-1.18-1.79,7.93,7.93,0,0,1,.16-3.39l.87-4.12A9.67,9.67,0,0,1,286.82,99a5.53,5.53,0,0,1,1.87-1.83,7.11,7.11,0,0,1,2.54-.84,23.59,23.59,0,0,1,3.19-.2,22.55,22.55,0,0,1,2.81.15,3.83,3.83,0,0,1,1.86.68,2.44,2.44,0,0,1,.86,1.57,8.45,8.45,0,0,1-.16,2.82l-.13.62h-4.37l.13-.62a1.67,1.67,0,0,0-.08-.84.92.92,0,0,0-.44-.45,2.29,2.29,0,0,0-.76-.19,9.67,9.67,0,0,0-1,0,6,6,0,0,0-1.48.14,2,2,0,0,0-.9.5,2.45,2.45,0,0,0-.54.94,9.75,9.75,0,0,0-.37,1.43l-.53,2.48c-.13.6-.22,1.1-.27,1.52a1.91,1.91,0,0,0,.1,1,1.05,1.05,0,0,0,.67.57,4.45,4.45,0,0,0,1.45.18c.44,0,.82,0,1.15,0a2.52,2.52,0,0,0,.88-.25,1.5,1.5,0,0,0,.61-.59,3.77,3.77,0,0,0,.39-1.1l.09-.47Z" transform="translate(0 0)"/><polygon class="cls-3" points="306.56 112.16 302.31 112.16 304.9 99.94 300.83 99.94 301.61 96.25 314.22 96.25 313.43 99.94 309.14 99.94 306.56 112.16"/><polygon class="cls-3" points="316.4 112.16 312.16 112.16 315.53 96.25 319.78 96.25 316.4 112.16"/><path class="cls-3" d="M322.84,112.07a4.94,4.94,0,0,1-2.15-.86,3.12,3.12,0,0,1-1.15-1.77,6.64,6.64,0,0,1,.09-3l.95-4.5a8,8,0,0,1,1.18-3,6,6,0,0,1,1.91-1.78,7.23,7.23,0,0,1,2.51-.85,19.1,19.1,0,0,1,3-.23,17.17,17.17,0,0,1,2.91.23,4.81,4.81,0,0,1,2.15.85A3.17,3.17,0,0,1,335.39,99a6.76,6.76,0,0,1-.08,3l-1,4.5a8.1,8.1,0,0,1-1.16,3,5.91,5.91,0,0,1-1.9,1.77,7.51,7.51,0,0,1-2.52.86,19,19,0,0,1-3,.22,17.27,17.27,0,0,1-2.92-.22m5.12-3.54a2.47,2.47,0,0,0,1-.34,2,2,0,0,0,.68-.79,6,6,0,0,0,.46-1.41l.76-3.59A4.51,4.51,0,0,0,331,101a1.16,1.16,0,0,0-.35-.77,1.54,1.54,0,0,0-.85-.34,10.47,10.47,0,0,0-1.38-.08,11.2,11.2,0,0,0-1.41.08,2.28,2.28,0,0,0-1,.34,2,2,0,0,0-.66.77,6.08,6.08,0,0,0-.48,1.4L324.1,106a5,5,0,0,0-.11,1.41,1.18,1.18,0,0,0,.34.79,1.55,1.55,0,0,0,.84.34,10.42,10.42,0,0,0,1.37.07,11.48,11.48,0,0,0,1.42-.07" transform="translate(0 0)"/><polygon class="cls-3" points="339.38 112.16 335.14 112.16 338.51 96.25 345.69 96.25 347.66 108.47 347.83 108.47 350.16 96.25 354.41 96.25 351.03 112.16 343.8 112.16 341.89 99.94 341.72 99.94 339.38 112.16"/><path class="cls-3" d="M117.56,110.38h-.12a2.43,2.43,0,0,1-.65.93,3.47,3.47,0,0,1-.9.54,4.43,4.43,0,0,1-1,.25,9.88,9.88,0,0,1-2.69-.07,2.4,2.4,0,0,1-1.15-.52,1.93,1.93,0,0,1-.58-1.06,4.29,4.29,0,0,1,.1-1.74,5.41,5.41,0,0,1,.62-1.68,3.33,3.33,0,0,1,1-1.08,4.07,4.07,0,0,1,1.38-.58,8.75,8.75,0,0,1,1.78-.17l.85,0a4.06,4.06,0,0,1,.88.12,1.66,1.66,0,0,1,.71.37,1.05,1.05,0,0,1,.34.74h.17l.39-1.76c0-.26.09-.49.11-.7a1,1,0,0,0-.08-.55.8.8,0,0,0-.43-.34,2.87,2.87,0,0,0-.9-.11,2.52,2.52,0,0,0-1.13.23,1.34,1.34,0,0,0-.63,1h-3.65a4.53,4.53,0,0,1,.86-2,3.6,3.6,0,0,1,1.38-1,5.67,5.67,0,0,1,1.73-.37c.62,0,1.26,0,1.91,0a17.55,17.55,0,0,1,2.37.14,3,3,0,0,1,1.53.58,1.94,1.94,0,0,1,.67,1.3,7,7,0,0,1-.18,2.29l-1.48,7h-3.65Zm-2.68-2.75a1.24,1.24,0,0,0-.67,1,1.07,1.07,0,0,0,0,.7.77.77,0,0,0,.35.36,1.54,1.54,0,0,0,.49.13l.48,0a8.44,8.44,0,0,0,1,0,2.16,2.16,0,0,0,.66-.19,1,1,0,0,0,.42-.41,3,3,0,0,0,.25-.71,1,1,0,0,0,0-.55.65.65,0,0,0-.34-.31,2.81,2.81,0,0,0-.61-.13c-.24,0-.51,0-.8,0a3.2,3.2,0,0,0-1.18.2" transform="translate(0 0)"/><path class="cls-3" d="M129.13,100.9l-.45,2.08h.15a5.29,5.29,0,0,1,.73-1.09,3.58,3.58,0,0,1,.86-.67,3.16,3.16,0,0,1,1-.35,6.44,6.44,0,0,1,1.19-.1,3,3,0,0,1,2.54.88,3.28,3.28,0,0,1,.28,2.69l-1.63,7.7h-3.65l1.46-6.86a1.94,1.94,0,0,0-.06-1.21c-.14-.26-.51-.4-1.1-.4a2.73,2.73,0,0,0-1,.17,1.64,1.64,0,0,0-.68.49,2.84,2.84,0,0,0-.44.74,6.11,6.11,0,0,0-.27.94l-1.3,6.13H123.1l2.38-11.14Z" transform="translate(0 0)"/><path class="cls-3" d="M146.87,112h-3.65l.49-1.93h-.17a4.37,4.37,0,0,1-.67,1,3.05,3.05,0,0,1-.83.62,3.2,3.2,0,0,1-1,.32,6.69,6.69,0,0,1-1.12.09,3.92,3.92,0,0,1-2.93-1q-.92-.94-.42-3.15l.53-2.55a9.54,9.54,0,0,1,.7-2.17,4.69,4.69,0,0,1,1.05-1.48,3.72,3.72,0,0,1,1.48-.83,6.74,6.74,0,0,1,2-.27,7,7,0,0,1,1,.06,2.57,2.57,0,0,1,.81.26,1.82,1.82,0,0,1,.61.53,2.31,2.31,0,0,1,.37.87h.16l1.34-6.37h3.65Zm-6.58-4a1.65,1.65,0,0,0,.11.87.63.63,0,0,0,.49.35,5.85,5.85,0,0,0,.93.06,4.35,4.35,0,0,0,1-.09,1.43,1.43,0,0,0,.69-.4A2.56,2.56,0,0,0,144,108a14.06,14.06,0,0,0,.43-1.52c.11-.54.19-1,.24-1.37a2.15,2.15,0,0,0,0-.9.75.75,0,0,0-.48-.49,3.05,3.05,0,0,0-1.09-.15,3.25,3.25,0,0,0-1.09.15,1.36,1.36,0,0,0-.66.48,2.64,2.64,0,0,0-.41.89c-.1.37-.21.84-.32,1.39a11.05,11.05,0,0,0-.28,1.6" transform="translate(0 0)"/></g></g></g></svg>